<?xml version="1.0" encoding="UTF-8"?>
<svg id="Layer_1" xmlns="http://www.w3.org/2000/svg" version="1.1" viewBox="0 0 402 94.8">
  <!-- Generator: Adobe Illustrator 29.0.1, SVG Export Plug-In . SVG Version: 2.1.0 Build 192)  -->
  <defs>
    <style>
      .st0 {
        fill: #e88705;
      }
    </style>
  </defs>
  <path class="st0" d="M84.1,27.7c-.5-1.9-1.1-3.6-2-5.1-.8-1.6-1.9-2.9-3.3-4.1-1.3-1.1-2.9-2-4.6-2.7-1.8-.6-3.8-.9-6.2-.9-3.4,0-6.4.7-8.9,2.1s-4.5,3.2-6.1,5.6c-1.6,2.3-2.7,5-3.5,7.9-.8,2.9-1.1,6-1.1,9s.4,6.1,1.1,9c.8,2.9,1.9,5.6,3.5,7.9,1.6,2.3,3.6,4.2,6.1,5.6,2.5,1.4,5.5,2.1,8.9,2.1s4.8-.4,6.7-1.3c1.9-.9,3.6-2.1,5-3.6s2.5-3.3,3.3-5.4c.8-2,1.3-4.2,1.5-6.6h11c-.2,3.9-1.1,7.4-2.5,10.6s-3.3,5.9-5.7,8.3c-2.4,2.3-5.2,4.1-8.5,5.4s-6.8,1.9-10.7,1.9-9.1-.9-13-2.7c-3.8-1.8-7.1-4.2-9.7-7.3-2.6-3.1-4.7-6.6-6.1-10.7-1.4-4.1-2.1-8.5-2.1-13.1s.7-8.9,2.1-13c1.4-4.1,3.4-7.7,6.1-10.7,2.6-3.1,5.9-5.5,9.7-7.3s8.1-2.7,13-2.7,7,.5,10.2,1.5,6,2.4,8.4,4.3,4.4,4.2,5.9,6.9c1.5,2.7,2.4,5.8,2.8,9.3h-11.3v-.2Z"/>
  <path class="st0" d="M113.9,25h11.3l12.2,34.8h.2l11.8-34.8h10.7l-18.1,49.2c-.8,2.1-1.7,4.1-2.5,6s-1.8,3.6-3,5.1-2.6,2.6-4.4,3.5c-1.7.9-4,1.3-6.7,1.3s-4.8-.2-7.1-.5v-8.7c.8,0,1.7.3,2.4.4.8,0,1.6.2,2.4.2,1.2,0,2.2-.2,3-.5s1.4-.7,1.9-1.3c.5-.6.9-1.3,1.3-2,.4-.8.7-1.7,1-2.7l1.2-3.6-17.7-46.5h0Z"/>
  <path class="st0" d="M177.2,7.2h10.3v64.5h-10.3V7.2Z"/>
  <path class="st0" d="M247.9,71.6h-10.1v-6.5h-.2c-1.3,2.3-3.1,4.2-5.6,5.6s-5,2.1-7.6,2.1c-6.1,0-10.6-1.5-13.3-4.6-2.7-3-4.1-7.6-4.1-13.8v-29.6h10.3v28.6c0,4.1.8,7,2.3,8.7,1.6,1.7,3.8,2.5,6.6,2.5s4-.3,5.4-1c1.4-.7,2.6-1.5,3.5-2.7.9-1.1,1.5-2.5,1.9-4,.4-1.6.6-3.3.6-5.1v-27.1h10.3v46.9Z"/>
  <path class="st0" d="M282.3,47.1l-16.2-22.1h12.5l9.8,14.4,10.2-14.4h11.9l-15.9,21.6,17.9,25.1h-12.4l-11.8-17.2-11.5,17.2h-12.1l17.6-24.6Z"/>
  <path class="st0" d="M334.5,51c0,1.8.3,3.6.8,5.2.5,1.7,1.3,3.2,2.3,4.4,1,1.3,2.3,2.3,3.9,3,1.6.8,3.4,1.1,5.6,1.1s5.4-.6,7.3-1.9c1.8-1.3,3.2-3.2,4.1-5.8h9.8c-.5,2.5-1.5,4.8-2.8,6.8s-2.9,3.7-4.8,5c-1.9,1.4-4,2.4-6.3,3.1s-4.7,1-7.3,1c-3.7,0-6.9-.6-9.8-1.8-2.8-1.2-5.2-2.9-7.2-5.1-2-2.2-3.4-4.8-4.4-7.8s-1.5-6.3-1.5-9.9.5-6.5,1.6-9.4c1.1-3,2.6-5.6,4.5-7.9,2-2.3,4.3-4,7.1-5.4,2.8-1.3,5.9-2,9.4-2s7,.8,9.9,2.3,5.3,3.6,7.3,6.1c1.9,2.5,3.3,5.4,4.2,8.7.9,3.3,1.1,6.7.7,10.2h-34.4ZM358.5,44.2c-.1-1.6-.5-3.2-1-4.7-.6-1.5-1.4-2.8-2.3-3.9-1-1.1-2.2-2-3.6-2.7s-3-1-4.7-1-3.4.3-4.9.9c-1.5.6-2.7,1.5-3.8,2.6-1.1,1.1-1.9,2.4-2.5,3.9s-1,3.1-1,4.9h24-.2Z"/>
</svg>